<?xml version="1.0" encoding="utf-8"?>
<!-- Generator: Adobe Illustrator 15.0.2, SVG Export Plug-In . SVG Version: 6.00 Build 0)  -->
<!DOCTYPE svg PUBLIC "-//W3C//DTD SVG 1.1//EN" "http://www.w3.org/Graphics/SVG/1.1/DTD/svg11.dtd">
<svg version="1.1" id="Met_horn_outline" xmlns="http://www.w3.org/2000/svg" xmlns:xlink="http://www.w3.org/1999/xlink" x="0px"
	 y="0px" width="57.156px" height="87.813px" viewBox="0 0 57.156 87.813" enable-background="new 0 0 57.156 87.813"
	 xml:space="preserve">
<path d="M52.677,2.676c0.337,2.839,0.845,8.858,1.236,14.315l0.012,0.17l0.035,0.167c0.021,0.103,2.12,10.424-2.004,23.711
	c-5.485,17.674-19.522,32.305-40.602,42.319c-2.81,0.912-4.898,1.397-6.402,1.648c1.38-1.345,3.321-3.018,5.826-4.774l0.034-0.022
	l0.033-0.025c22.353-16.797,26.575-38.742,27.1-50.328c0.207-4.548,0.033-7.643-0.519-9.241l0.079-0.029
	c-0.304-0.839-0.736-2.007-1.229-3.331c-1.116-3.006-2.838-7.641-3.647-10.148C36.292,5.539,47.749,2.978,52.677,2.676
	 M53.538,0.146c-5.22,0-24.192,4.145-23.757,6.104c0.5,2.25,4.094,11.649,5.375,15.188c0.087,0.079,5.125,33.5-25.813,56.75
	c-6.063,4.25-9.438,8.416-9.25,9c0.084,0.264,0.754,0.575,2.274,0.575c1.863,0,5.004-0.469,9.913-2.075
	c53.333-25.25,44.125-68.875,44.125-68.875S55.344,2,54.844,0.438C54.779,0.236,54.309,0.146,53.538,0.146L53.538,0.146z"/>
</svg>
